<svg viewBox="0 0 700 420" xmlns="http://www.w3.org/2000/svg">
  <defs>
    <marker id="arrow" markerWidth="8" markerHeight="6" refX="7" refY="3" orient="auto">
      <polygon points="0 0, 8 3, 0 6" fill="#1a1714"/>
    </marker>
  </defs>
  <rect width="700" height="420" fill="#fdfcfb"/>

  <!-- Title -->
  <text x="350" y="36" font-family="'EB Garamond', Georgia, 'Times New Roman', serif" font-size="13" font-weight="bold" fill="#1a1714" text-anchor="middle">One school day, 51 pickups: the median teenager's attention auction</text>
  <text x="350" y="54" font-family="'EB Garamond', Georgia, 'Times New Roman', serif" font-size="11" fill="#4a4540" text-anchor="middle">Common Sense Media 2023 — dots mark phone pickups during school hours (8:00 a.m.–3:00 p.m.)</text>

  <!-- Timeline axis -->
  <line x1="64" y1="220" x2="636" y2="220" stroke="#1a1714" stroke-width="1.5"/>

  <!-- Hour ticks: 8 hours from 8:00 to 16:00 (3pm dismissal-ish, school day 8:00-15:00 = 7 hours; we'll mark 8 ticks) -->
  <text x="64" y="245" font-family="'EB Garamond', Georgia, 'Times New Roman', serif" font-size="10" fill="#4a4540" text-anchor="middle">8:00</text>
  <line x1="64" y1="216" x2="64" y2="224" stroke="#1a1714" stroke-width="1"/>
  <text x="146" y="245" font-family="'EB Garamond', Georgia, 'Times New Roman', serif" font-size="10" fill="#4a4540" text-anchor="middle">9:00</text>
  <line x1="146" y1="216" x2="146" y2="224" stroke="#1a1714" stroke-width="1"/>
  <text x="228" y="245" font-family="'EB Garamond', Georgia, 'Times New Roman', serif" font-size="10" fill="#4a4540" text-anchor="middle">10:00</text>
  <line x1="228" y1="216" x2="228" y2="224" stroke="#1a1714" stroke-width="1"/>
  <text x="310" y="245" font-family="'EB Garamond', Georgia, 'Times New Roman', serif" font-size="10" fill="#4a4540" text-anchor="middle">11:00</text>
  <line x1="310" y1="216" x2="310" y2="224" stroke="#1a1714" stroke-width="1"/>
  <text x="392" y="245" font-family="'EB Garamond', Georgia, 'Times New Roman', serif" font-size="10" fill="#4a4540" text-anchor="middle">12:00</text>
  <line x1="392" y1="216" x2="392" y2="224" stroke="#1a1714" stroke-width="1"/>
  <text x="474" y="245" font-family="'EB Garamond', Georgia, 'Times New Roman', serif" font-size="10" fill="#4a4540" text-anchor="middle">13:00</text>
  <line x1="474" y1="216" x2="474" y2="224" stroke="#1a1714" stroke-width="1"/>
  <text x="556" y="245" font-family="'EB Garamond', Georgia, 'Times New Roman', serif" font-size="10" fill="#4a4540" text-anchor="middle">14:00</text>
  <line x1="556" y1="216" x2="556" y2="224" stroke="#1a1714" stroke-width="1"/>
  <text x="636" y="245" font-family="'EB Garamond', Georgia, 'Times New Roman', serif" font-size="10" fill="#4a4540" text-anchor="middle">15:00</text>
  <line x1="636" y1="216" x2="636" y2="224" stroke="#1a1714" stroke-width="1"/>

  <!-- Class-period shading bands (23% of notifications arrive in-class — visualized as gray bars beneath axis) -->
  <rect x="80" y="252" width="60" height="20" fill="#c8c4c0" stroke="#8a8480" stroke-width="0.5"/>
  <rect x="160" y="252" width="60" height="20" fill="#c8c4c0" stroke="#8a8480" stroke-width="0.5"/>
  <rect x="240" y="252" width="60" height="20" fill="#c8c4c0" stroke="#8a8480" stroke-width="0.5"/>
  <rect x="330" y="252" width="60" height="20" fill="#c8c4c0" stroke="#8a8480" stroke-width="0.5"/>
  <rect x="410" y="252" width="60" height="20" fill="#c8c4c0" stroke="#8a8480" stroke-width="0.5"/>
  <rect x="490" y="252" width="60" height="20" fill="#c8c4c0" stroke="#8a8480" stroke-width="0.5"/>
  <rect x="570" y="252" width="60" height="20" fill="#c8c4c0" stroke="#8a8480" stroke-width="0.5"/>
  <text x="350" y="286" font-family="'EB Garamond', Georgia, 'Times New Roman', serif" font-size="10" fill="#4a4540" text-anchor="middle">Shaded bands = class periods. ~23% of all notifications arrive during these bands.</text>

  <!-- 51 dots scattered above the axis -->
  <!-- Row 1 -->
  <circle cx="72" cy="200" r="3" fill="#1a1714"/>
  <circle cx="92" cy="180" r="3" fill="#1a1714"/>
  <circle cx="108" cy="194" r="3" fill="#1a1714"/>
  <circle cx="130" cy="170" r="3" fill="#1a1714"/>
  <circle cx="148" cy="186" r="3" fill="#1a1714"/>
  <circle cx="170" cy="178" r="3" fill="#1a1714"/>
  <circle cx="186" cy="200" r="3" fill="#1a1714"/>
  <circle cx="206" cy="166" r="3" fill="#1a1714"/>
  <circle cx="224" cy="192" r="3" fill="#1a1714"/>
  <circle cx="246" cy="172" r="3" fill="#1a1714"/>
  <circle cx="262" cy="186" r="3" fill="#1a1714"/>
  <circle cx="282" cy="200" r="3" fill="#1a1714"/>
  <circle cx="298" cy="172" r="3" fill="#1a1714"/>
  <circle cx="318" cy="190" r="3" fill="#1a1714"/>
  <circle cx="338" cy="174" r="3" fill="#1a1714"/>
  <circle cx="358" cy="200" r="3" fill="#1a1714"/>
  <circle cx="376" cy="180" r="3" fill="#1a1714"/>
  <!-- Row 2 -->
  <circle cx="80" cy="148" r="3" fill="#1a1714"/>
  <circle cx="100" cy="132" r="3" fill="#1a1714"/>
  <circle cx="120" cy="148" r="3" fill="#1a1714"/>
  <circle cx="140" cy="120" r="3" fill="#1a1714"/>
  <circle cx="160" cy="140" r="3" fill="#1a1714"/>
  <circle cx="180" cy="124" r="3" fill="#1a1714"/>
  <circle cx="200" cy="146" r="3" fill="#1a1714"/>
  <circle cx="220" cy="128" r="3" fill="#1a1714"/>
  <circle cx="240" cy="148" r="3" fill="#1a1714"/>
  <circle cx="260" cy="124" r="3" fill="#1a1714"/>
  <circle cx="280" cy="142" r="3" fill="#1a1714"/>
  <circle cx="300" cy="130" r="3" fill="#1a1714"/>
  <circle cx="320" cy="148" r="3" fill="#1a1714"/>
  <circle cx="340" cy="126" r="3" fill="#1a1714"/>
  <circle cx="360" cy="144" r="3" fill="#1a1714"/>
  <circle cx="380" cy="128" r="3" fill="#1a1714"/>
  <!-- More across afternoon -->
  <circle cx="400" cy="200" r="3" fill="#1a1714"/>
  <circle cx="420" cy="172" r="3" fill="#1a1714"/>
  <circle cx="440" cy="194" r="3" fill="#1a1714"/>
  <circle cx="460" cy="166" r="3" fill="#1a1714"/>
  <circle cx="480" cy="190" r="3" fill="#1a1714"/>
  <circle cx="500" cy="174" r="3" fill="#1a1714"/>
  <circle cx="520" cy="198" r="3" fill="#1a1714"/>
  <circle cx="540" cy="170" r="3" fill="#1a1714"/>
  <circle cx="560" cy="192" r="3" fill="#1a1714"/>
  <circle cx="580" cy="180" r="3" fill="#1a1714"/>
  <circle cx="600" cy="196" r="3" fill="#1a1714"/>
  <circle cx="618" cy="174" r="3" fill="#1a1714"/>
  <circle cx="634" cy="192" r="3" fill="#1a1714"/>
  <circle cx="408" cy="138" r="3" fill="#1a1714"/>
  <circle cx="438" cy="124" r="3" fill="#1a1714"/>
  <circle cx="468" cy="142" r="3" fill="#1a1714"/>
  <circle cx="498" cy="130" r="3" fill="#1a1714"/>
  <circle cx="528" cy="146" r="3" fill="#1a1714"/>

  <!-- Annotations -->
  <text x="64" y="110" font-family="'EB Garamond', Georgia, 'Times New Roman', serif" font-size="11" font-weight="bold" fill="#1a1714">51 pickups</text>
  <text x="64" y="124" font-family="'EB Garamond', Georgia, 'Times New Roman', serif" font-size="10" fill="#4a4540">median teenager, school hours</text>

  <text x="510" y="110" font-family="'EB Garamond', Georgia, 'Times New Roman', serif" font-size="11" font-weight="bold" fill="#1a1714" text-anchor="end">43 minutes total use</text>
  <text x="636" y="124" font-family="'EB Garamond', Georgia, 'Times New Roman', serif" font-size="10" fill="#4a4540" text-anchor="end">first bell to last</text>

  <!-- Caption -->
  <text x="350" y="392" font-family="'EB Garamond', Georgia, 'Times New Roman', serif" font-size="10" fill="#4a4540" text-anchor="middle">Each dot is a state-reset. The high end of the distribution exceeds 498 pickups per day.</text>
</svg>
